<?xml version="1.0" encoding="utf-8"?>
<!-- Generator: Adobe Illustrator 27.1.0, SVG Export Plug-In . SVG Version: 6.00 Build 0)  -->
<svg version="1.1" id="Layer_1" xmlns="http://www.w3.org/2000/svg" xmlns:xlink="http://www.w3.org/1999/xlink" x="0px" y="0px"
	 viewBox="0 0 158 158" style="enable-background:new 0 0 158 158;" xml:space="preserve">
<style type="text/css">
	.st0{fill:#FFFFFF;filter:url(#Adobe_OpacityMaskFilter);}
	.st1{mask:url(#mask0_1172_115_00000129167101367612931430000008276143568362807446_);}
	.st2{fill:#F1C111;}
</style>
<defs>
	<filter id="Adobe_OpacityMaskFilter" filterUnits="userSpaceOnUse" x="-0.8" y="-12.3" width="163.4" height="165.9">
		<feColorMatrix  type="matrix" values="1 0 0 0 0  0 1 0 0 0  0 0 1 0 0  0 0 0 1 0"/>
	</filter>
</defs>
<mask maskUnits="userSpaceOnUse" x="-0.8" y="-12.3" width="163.4" height="165.9" id="mask0_1172_115_00000129167101367612931430000008276143568362807446_">
	
		<ellipse transform="matrix(1.673868e-02 -0.9999 0.9999 1.673868e-02 -1.2465 156.8328)" class="st0" cx="79.1" cy="79.1" rx="57.8" ry="57.3"/>
</mask>
<g class="st1">
	<polygon class="st2" points="101.6,-12.3 100.4,-11.6 161.3,94.8 162.6,94 	"/>
	<polygon class="st2" points="94.2,-8 92.9,-7.2 153.9,99.1 155.1,98.4 	"/>
	<polygon class="st2" points="87.4,-4 86.1,-3.3 147,103.1 148.3,102.3 	"/>
	<polygon class="st2" points="79.9,0.4 78.7,1.1 139.6,107.4 140.8,106.7 	"/>
	<polygon class="st2" points="72.5,4.7 71.2,5.4 132.1,111.7 133.4,111 	"/>
	<polygon class="st2" points="65.6,8.7 64.4,9.4 125.3,115.7 126.5,115 	"/>
	<polygon class="st2" points="58.2,13 56.9,13.7 117.9,120 119.1,119.3 	"/>
	<polygon class="st2" points="50.7,17.3 49.5,18.1 110.4,124.4 111.6,123.7 	"/>
	<polygon class="st2" points="43.9,21.3 42.7,22 103.6,128.3 104.8,127.6 	"/>
	<polygon class="st2" points="36.4,25.6 35.2,26.4 96.1,132.7 97.4,132 	"/>
	<polygon class="st2" points="29,30 27.8,30.7 88.7,137 89.9,136.3 	"/>
	<polygon class="st2" points="22.8,33.6 21.5,34.3 82.5,140.6 83.7,139.9 	"/>
	<polygon class="st2" points="14.7,38.3 13.5,39 74.4,145.3 75.6,144.6 	"/>
	<polygon class="st2" points="7.9,42.3 6.6,43 67.6,149.3 68.8,148.6 	"/>
	<polygon class="st2" points="0.4,46.6 -0.8,47.3 60.1,153.6 61.4,152.9 	"/>
</g>
</svg>
