<?xml version="1.0" encoding="UTF-8"?>
<svg id="Layer_2" data-name="Layer 2" xmlns="http://www.w3.org/2000/svg" viewBox="0 0 957.38 253.5">
  <defs>
    <style>
      .cls-1 {
        fill: #fff;
      }

      .cls-2 {
        stroke-miterlimit: 10;
        stroke-width: 20px;
      }

      .cls-2, .cls-3 {
        fill: none;
        stroke: #fff;
      }

      .cls-3 {
        stroke-linejoin: round;
        stroke-width: 17px;
      }
    </style>
  </defs>
  <g id="Layer_2-2" data-name="Layer 2">
    <g>
      <path class="cls-1" d="m273.72,194.92c-3.92,0-7.24-1.36-9.97-4.09-2.73-2.73-4.09-6.05-4.09-9.97v-105.13c0-3.86,1.36-7.15,4.09-9.88,2.73-2.79,6.05-4.18,9.97-4.18h52.52c13.53,0,25.1,4.81,34.72,14.42,9.61,9.61,14.42,21.19,14.42,34.72s-4.81,25.08-14.42,34.63c-9.61,9.61-21.19,14.42-34.72,14.42h-38.55v21.01c0,3.92-1.37,7.24-4.09,9.97-2.73,2.73-6.02,4.09-9.88,4.09Zm73.62-84.12c0-5.81-2.08-10.77-6.23-14.87-4.09-4.15-9.05-6.23-14.87-6.23h-38.55v42.11h38.55c5.82,0,10.77-2.05,14.87-6.14,4.15-4.15,6.23-9.11,6.23-14.87Z"/>
      <path class="cls-1" d="m410.45,194.92c-3.92,0-7.24-1.36-9.97-4.09-2.73-2.73-4.09-6.05-4.09-9.97v-105.13c0-3.86,1.36-7.15,4.09-9.88,2.73-2.79,6.05-4.18,9.97-4.18s7.15,1.39,9.88,4.18c2.73,2.73,4.09,6.02,4.09,9.88v105.13c0,3.92-1.37,7.24-4.09,9.97-2.73,2.73-6.02,4.09-9.88,4.09Z"/>
      <path class="cls-1" d="m456.03,89.7c-3.92,0-7.24-1.36-9.97-4.09-2.73-2.73-4.1-6.02-4.1-9.88s1.36-7.15,4.1-9.88c2.73-2.79,6.05-4.18,9.97-4.18h87.59c3.86,0,7.18,1.39,9.97,4.18,2.73,2.73,4.1,6.02,4.1,9.88s-1.37,7.15-4.1,9.88c-2.79,2.73-6.11,4.09-9.97,4.09h-29.82v91.16c0,3.92-1.37,7.24-4.1,9.97-2.73,2.73-6.02,4.09-9.88,4.09s-7.18-1.36-9.97-4.09c-2.73-2.73-4.1-6.05-4.1-9.97v-91.16h-29.73Z"/>
      <path class="cls-1" d="m686.85,170.98c-2.79-2.73-6.12-4.09-9.97-4.09h-101.66v13.98c0,3.92,1.36,7.24,4.09,9.97,2.73,2.72,6.05,4.09,9.97,4.09h87.59c3.85,0,7.19-1.37,9.97-4.09,2.73-2.73,4.09-6.05,4.09-9.97s-1.36-7.16-4.09-9.88Zm-27.51-28.66c3.85,0,7.19-1.37,9.97-4.09,2.73-2.73,4.09-6.03,4.09-9.88s-1.36-7.25-4.09-9.97c-2.79-2.73-6.12-4.09-9.97-4.09h-84.12v28.04h84.12Zm27.51-76.47c-2.79-2.8-6.12-4.18-9.97-4.18h-87.59c-3.92,0-7.24,1.39-9.97,4.18-2.73,2.72-4.09,6.02-4.09,9.88v13.98h101.66c3.85,0,7.19-1.37,9.97-4.09,2.73-2.73,4.09-6.03,4.09-9.88s-1.36-7.16-4.09-9.88Z"/>
      <path class="cls-1" d="m771.51,194.92c-18.4,0-34.09-6.5-47.09-19.5-13-13-19.5-28.69-19.5-47.09s6.5-34.15,19.5-47.09c13-13.06,28.69-19.58,47.09-19.58s34.1,6.53,47.09,19.58c2.73,2.73,4.09,6.02,4.09,9.88s-1.36,7.15-4.09,9.88c-2.73,2.79-6.02,4.18-9.88,4.18s-7.24-1.39-9.97-4.18c-7.54-7.54-16.62-11.31-27.24-11.31s-19.7,3.77-27.24,11.31c-7.54,7.54-11.3,16.65-11.3,27.33s3.77,19.7,11.3,27.24c7.54,7.54,16.62,11.31,27.24,11.31s19.7-3.77,27.24-11.31c2.73-2.73,6.05-4.09,9.97-4.09s7.15,1.37,9.88,4.09c2.73,2.73,4.09,6.02,4.09,9.88s-1.36,7.24-4.09,9.97c-13,13-28.7,19.5-47.09,19.5Z"/>
      <path class="cls-1" d="m855.72,194.92c-3.92,0-7.24-1.36-9.97-4.09-2.73-2.73-4.1-6.05-4.1-9.97v-105.13c0-3.86,1.36-7.15,4.1-9.88,2.73-2.79,6.05-4.18,9.97-4.18s7.15,1.39,9.88,4.18c2.73,2.73,4.1,6.02,4.1,9.88v38.55h59.64v-38.55c0-3.86,1.36-7.15,4.1-9.88,2.73-2.79,6.02-4.18,9.88-4.18s7.18,1.39,9.97,4.18c2.73,2.73,4.09,6.02,4.09,9.88v105.13c0,3.92-1.36,7.24-4.09,9.97-2.79,2.73-6.11,4.09-9.97,4.09s-7.15-1.36-9.88-4.09c-2.73-2.73-4.1-6.05-4.1-9.97v-38.55h-59.64v38.55c0,3.92-1.37,7.24-4.1,9.97-2.73,2.73-6.02,4.09-9.88,4.09Z"/>
    </g>
    <g id="Layer_2-2" data-name="Layer 2-2">
      <g>
        <polygon class="cls-2" points="209.54 69.15 109.77 11.55 10 69.15 10 184.35 109.77 241.96 209.54 184.35 209.54 69.15"/>
        <polygon class="cls-2" points="166.78 93.84 109.77 60.92 52.76 93.84 52.76 159.67 109.77 192.58 166.78 159.67 166.78 93.84"/>
        <line class="cls-2" x1="10" y1="69.15" x2="52.76" y2="93.84"/>
        <line class="cls-2" x1="209.54" y1="69.15" x2="166.78" y2="93.84"/>
        <line class="cls-2" x1="109.77" y1="245.04" x2="109.77" y2="192.58"/>
        <path class="cls-3" d="m140.74,110.8h-50.31c-9.32,2.79-9.94,10.83-5.38,17.81"/>
        <line class="cls-3" x1="99.39" y1="151.26" x2="103.53" y2="110.8"/>
        <line class="cls-3" x1="124.15" y1="151.26" x2="124.15" y2="110.8"/>
      </g>
    </g>
  </g>
</svg>