<?xml version="1.0" encoding="UTF-8"?>
<svg id="Layer_2" data-name="Layer 2" xmlns="http://www.w3.org/2000/svg" viewBox="0 0 965.26 271.71">
  <defs>
    <style>
      .cls-1 {
        stroke-miterlimit: 10;
        stroke-width: 20px;
      }

      .cls-1, .cls-2 {
        fill: none;
        stroke: #014f86;
      }

      .cls-3 {
        fill: #014f86;
      }

      .cls-2 {
        stroke-linejoin: round;
        stroke-width: 17px;
      }
    </style>
  </defs>
  <g id="Layer_2-2" data-name="Layer 2">
    <g>
      <path class="cls-3" d="m281.6,204.15c-3.92,0-7.24-1.36-9.97-4.09-2.73-2.73-4.09-6.05-4.09-9.97v-105.13c0-3.86,1.36-7.15,4.09-9.88,2.73-2.79,6.05-4.18,9.97-4.18h52.52c13.53,0,25.1,4.81,34.72,14.42,9.61,9.61,14.42,21.19,14.42,34.72s-4.81,25.08-14.42,34.63c-9.61,9.61-21.19,14.42-34.72,14.42h-38.55v21.01c0,3.92-1.37,7.24-4.09,9.97-2.73,2.73-6.02,4.09-9.88,4.09Zm73.62-84.12c0-5.81-2.08-10.77-6.23-14.87-4.09-4.15-9.05-6.23-14.87-6.23h-38.55v42.11h38.55c5.82,0,10.77-2.05,14.87-6.14,4.15-4.15,6.23-9.11,6.23-14.87Z"/>
      <path class="cls-3" d="m418.33,204.15c-3.92,0-7.24-1.36-9.97-4.09-2.73-2.73-4.09-6.05-4.09-9.97v-105.13c0-3.86,1.36-7.15,4.09-9.88,2.73-2.79,6.05-4.18,9.97-4.18s7.15,1.39,9.88,4.18c2.73,2.73,4.09,6.02,4.09,9.88v105.13c0,3.92-1.37,7.24-4.09,9.97-2.73,2.73-6.02,4.09-9.88,4.09Z"/>
      <path class="cls-3" d="m463.91,98.93c-3.92,0-7.24-1.36-9.97-4.09-2.73-2.73-4.1-6.02-4.1-9.88s1.36-7.15,4.1-9.88c2.73-2.79,6.05-4.18,9.97-4.18h87.59c3.86,0,7.18,1.39,9.97,4.18,2.73,2.73,4.1,6.02,4.1,9.88s-1.37,7.15-4.1,9.88c-2.79,2.73-6.11,4.09-9.97,4.09h-29.82v91.16c0,3.92-1.37,7.24-4.1,9.97-2.73,2.73-6.02,4.09-9.88,4.09s-7.18-1.36-9.97-4.09c-2.73-2.73-4.1-6.05-4.1-9.97v-91.16h-29.73Z"/>
      <path class="cls-3" d="m694.73,180.21c-2.79-2.73-6.12-4.09-9.97-4.09h-101.66v13.98c0,3.92,1.36,7.24,4.09,9.97,2.73,2.72,6.05,4.09,9.97,4.09h87.59c3.85,0,7.19-1.37,9.97-4.09,2.73-2.73,4.09-6.05,4.09-9.97s-1.36-7.16-4.09-9.88Zm-27.51-28.66c3.85,0,7.19-1.37,9.97-4.09,2.73-2.73,4.09-6.03,4.09-9.88s-1.36-7.25-4.09-9.97c-2.79-2.73-6.12-4.09-9.97-4.09h-84.12v28.04h84.12Zm27.51-76.47c-2.79-2.8-6.12-4.18-9.97-4.18h-87.59c-3.92,0-7.24,1.39-9.97,4.18-2.73,2.72-4.09,6.02-4.09,9.88v13.98h101.66c3.85,0,7.19-1.37,9.97-4.09,2.73-2.73,4.09-6.03,4.09-9.88s-1.36-7.16-4.09-9.88Z"/>
      <path class="cls-3" d="m779.39,204.15c-18.4,0-34.09-6.5-47.09-19.5-13-13-19.5-28.69-19.5-47.09s6.5-34.15,19.5-47.09c13-13.06,28.69-19.58,47.09-19.58s34.1,6.53,47.09,19.58c2.73,2.73,4.09,6.02,4.09,9.88s-1.36,7.15-4.09,9.88c-2.73,2.79-6.02,4.18-9.88,4.18s-7.24-1.39-9.97-4.18c-7.54-7.54-16.62-11.31-27.24-11.31s-19.7,3.77-27.24,11.31c-7.54,7.54-11.3,16.65-11.3,27.33s3.77,19.7,11.3,27.24c7.54,7.54,16.62,11.31,27.24,11.31s19.7-3.77,27.24-11.31c2.73-2.73,6.05-4.09,9.97-4.09s7.15,1.37,9.88,4.09c2.73,2.73,4.09,6.02,4.09,9.88s-1.36,7.24-4.09,9.97c-13,13-28.7,19.5-47.09,19.5Z"/>
      <path class="cls-3" d="m863.6,204.15c-3.92,0-7.24-1.36-9.97-4.09-2.73-2.73-4.1-6.05-4.1-9.97v-105.13c0-3.86,1.36-7.15,4.1-9.88,2.73-2.79,6.05-4.18,9.97-4.18s7.15,1.39,9.88,4.18c2.73,2.73,4.1,6.02,4.1,9.88v38.55h59.64v-38.55c0-3.86,1.36-7.15,4.1-9.88,2.73-2.79,6.02-4.18,9.88-4.18s7.18,1.39,9.97,4.18c2.73,2.73,4.09,6.02,4.09,9.88v105.13c0,3.92-1.36,7.24-4.09,9.97-2.79,2.73-6.11,4.09-9.97,4.09s-7.15-1.36-9.88-4.09c-2.73-2.73-4.1-6.05-4.1-9.97v-38.55h-59.64v38.55c0,3.92-1.37,7.24-4.1,9.97s-6.02,4.09-9.88,4.09Z"/>
    </g>
    <g id="Layer_2-2" data-name="Layer 2-2">
      <g>
        <polygon class="cls-1" points="225.31 73.7 117.65 11.55 10 73.7 10 198 117.65 260.16 225.31 198 225.31 73.7"/>
        <polygon class="cls-1" points="179.17 100.34 117.65 64.82 56.13 100.34 56.13 171.37 117.65 206.88 179.17 171.37 179.17 100.34"/>
        <line class="cls-1" x1="10" y1="73.7" x2="56.13" y2="100.34"/>
        <line class="cls-1" x1="225.31" y1="73.7" x2="179.17" y2="100.34"/>
        <line class="cls-1" x1="117.65" y1="263.49" x2="117.65" y2="206.88"/>
        <path class="cls-2" d="m151.07,118.64h-54.29c-10.06,3.01-10.73,11.68-5.8,19.22"/>
        <line class="cls-2" x1="106.45" y1="162.29" x2="110.92" y2="118.64"/>
        <line class="cls-2" x1="133.17" y1="162.29" x2="133.17" y2="118.64"/>
      </g>
    </g>
  </g>
</svg>